<svg width="180" height="261" viewBox="0 0 180 261" fill="none" xmlns="http://www.w3.org/2000/svg">
<rect y="46" width="180" height="180" rx="12" fill="#BDFFD4"/>
<g filter="url(#filter0_d_173_11)">
<path d="M59.11 180.47C45.9426 176.859 36.933 170.186 32.0814 160.45L35.4658 148.106L50.2792 152.167L48.2485 159.574C50.6843 164.002 54.9883 167.063 61.1605 168.755C66.5098 170.221 70.7855 169.956 73.9877 167.958C77.2181 165.858 79.5948 162.03 81.1178 156.475L96.8134 99.2274C97.3492 97.2728 97.2671 95.7572 96.5669 94.6804C95.8949 93.5007 94.5816 92.6429 92.6271 92.1071L87.9979 90.8379L91.1286 79.4193L127.853 89.4881L124.723 100.907L120.248 99.6798C118.293 99.144 116.726 99.212 115.546 99.884C114.395 100.453 113.551 101.715 113.015 103.67L97.9545 158.602C95.3315 168.169 90.6635 174.908 83.9505 178.819C77.2657 182.627 68.9855 183.177 59.11 180.47Z" fill="#4C48FF"/>
</g>
<defs>
<filter id="filter0_d_173_11" x="28.8661" y="70.0273" width="105.987" height="128.611" filterUnits="userSpaceOnUse" color-interpolation-filters="sRGB">
<feFlood flood-opacity="0" result="BackgroundImageFix"/>
<feColorMatrix in="SourceAlpha" type="matrix" values="0 0 0 0 0 0 0 0 0 0 0 0 0 0 0 0 0 0 127 0" result="hardAlpha"/>
<feOffset dx="7" dy="7"/>
<feComposite in2="hardAlpha" operator="out"/>
<feColorMatrix type="matrix" values="0 0 0 0 0 0 0 0 0 0 0 0 0 0 0 0 0 0 1 0"/>
<feBlend mode="normal" in2="BackgroundImageFix" result="effect1_dropShadow_173_11"/>
<feBlend mode="normal" in="SourceGraphic" in2="effect1_dropShadow_173_11" result="shape"/>
</filter>
</defs>
</svg>
